<svg width="58" height="59" viewBox="0 0 58 59" fill="none" xmlns="http://www.w3.org/2000/svg">
<path d="M56.0586 58.1429C55.6775 58.1429 55.2966 57.9956 55.0059 57.7009L49.7807 52.4037C47.8495 53.9003 45.4933 54.7107 43.0085 54.7107C40.0189 54.7107 37.215 53.5375 35.1138 51.4072C30.7605 46.9938 30.7605 39.8128 35.1136 35.3996H35.1138C37.215 33.2693 40.0187 32.0962 43.0085 32.0962C45.9983 32.0962 48.8021 33.2695 50.9031 35.3998C53.0042 37.5299 54.1615 40.3723 54.1615 43.4035C54.1615 45.9228 53.3622 48.3114 51.8858 50.2694L57.1112 55.5669C57.6926 56.1562 57.6926 57.1118 57.1112 57.7011C56.8204 57.9956 56.4395 58.1429 56.0586 58.1429ZM37.2189 37.5338C34.0268 40.7702 34.0268 46.0362 37.2189 49.2726C38.758 50.8327 40.8139 51.6921 43.0083 51.6921C45.2028 51.6921 47.2589 50.8327 48.7974 49.2726C50.3363 47.7124 51.1837 45.6279 51.1837 43.4031C51.1837 41.1783 50.3361 39.0938 48.7974 37.5338C47.2587 35.9737 45.2028 35.1145 43.0083 35.1145C40.8139 35.1145 38.7578 35.9738 37.2189 37.5338ZM23.3151 57.9066C23.1108 57.9066 22.9059 57.8639 22.7135 57.7777L18.2096 55.7595L14.0024 57.7632C13.5415 57.983 13.0016 57.9481 12.5714 57.6713C12.1412 57.3944 11.8808 56.9137 11.8808 56.3973V49.8461H7.69471C6.8726 49.8461 6.20604 49.1703 6.20604 48.3368V1.86435C6.20604 1.03087 6.8726 0.355103 7.69471 0.355103H45.8939C46.7161 0.355103 47.3826 1.03087 47.3826 1.86435V27.6524C47.3826 28.4859 46.7161 29.1617 45.8939 29.1617C45.0718 29.1617 44.4053 28.4859 44.4053 27.6524V3.37359H9.18338V46.8276H27.7491C28.5712 46.8276 29.2378 47.5033 29.2378 48.3368C29.2378 49.1703 28.5712 49.8461 27.7491 49.8461H24.8038V56.3973C24.8038 56.9076 24.5494 57.3834 24.1276 57.6621C23.8821 57.8241 23.5993 57.9066 23.3151 57.9066ZM18.1906 52.5919C18.3956 52.5919 18.6007 52.635 18.7924 52.7208L21.8265 54.0804V49.8462H14.858V54.021L17.5577 52.7353C17.7579 52.6397 17.9742 52.5919 18.1906 52.5919ZM2.04336 49.8461C1.22124 49.8461 0.554688 49.1703 0.554688 48.3368V1.86435C0.554688 1.03087 1.22124 0.355103 2.04336 0.355103C2.86547 0.355103 3.53202 1.03087 3.53202 1.86435V48.3368C3.53202 49.1703 2.86566 49.8461 2.04336 49.8461ZM35.2462 18.8118H18.3422C17.5201 18.8118 16.8536 18.1361 16.8536 17.3026C16.8536 16.4691 17.5201 15.7934 18.3422 15.7934H35.2462C36.0684 15.7934 36.7349 16.4691 36.7349 17.3026C36.7349 18.1361 36.0684 18.8118 35.2462 18.8118ZM29.8681 12.5873H23.7204C22.8983 12.5873 22.2317 11.9116 22.2317 11.0781C22.2317 10.2446 22.8983 9.56885 23.7204 9.56885H29.8681C30.6902 9.56885 31.3567 10.2446 31.3567 11.0781C31.3567 11.9116 30.6902 12.5873 29.8681 12.5873Z" fill="#E30909"/>
</svg>
