<svg width="66" height="61" viewBox="0 0 66 61" fill="none" xmlns="http://www.w3.org/2000/svg">
<path d="M15.6433 60.9021C12.8559 60.9021 10.5814 59.8503 8.86872 57.7651C8.34677 57.1296 8.4406 56.1929 9.07859 55.6727C9.7162 55.153 10.6568 55.2463 11.1785 55.8818C13.9616 59.2691 18.1467 57.9432 24.2152 55.5335C27.3175 54.3016 30.2479 53.1379 32.9474 53.118C32.9517 53.1178 32.956 53.1184 32.9616 53.118H32.9618H32.9619H32.9621H32.9623C32.967 53.118 32.9718 53.118 32.9765 53.118C35.676 53.1379 38.6066 54.3016 41.7089 55.5335C47.7772 57.9432 51.9629 59.2693 54.7456 55.8818C55.2673 55.2461 56.2077 55.1523 56.8455 55.6727C57.4835 56.1929 57.5773 57.1296 57.0554 57.7651C55.0905 60.1573 52.3852 61.1894 49.0156 60.8335C46.2607 60.5424 43.385 59.4005 40.6038 58.2961C37.7728 57.172 35.0988 56.11 32.9619 56.092C30.8251 56.1102 28.1511 57.172 25.3203 58.2961C22.5391 59.4005 19.6633 60.5424 16.9086 60.8335C16.4758 60.8792 16.0539 60.9021 15.6433 60.9021ZM50.2802 54.0867C49.8696 54.0867 49.448 54.064 49.0153 54.0183C46.2606 53.7272 43.3848 52.5851 40.6036 51.4809C37.7726 50.3566 35.0986 49.2948 32.9618 49.2768C30.8249 49.295 28.1511 50.3568 25.3201 51.4809C22.5391 52.5851 19.6632 53.7272 16.9084 54.0183C13.5372 54.3726 10.8336 53.3418 8.86854 50.9497C8.34658 50.3143 8.44042 49.3775 9.0784 48.8573C9.71601 48.3371 10.6562 48.4309 11.1785 49.0664C13.9612 52.4541 18.1469 51.128 24.215 48.7183C27.3173 47.4864 30.2477 46.3227 32.9472 46.3028C32.9515 46.303 32.9558 46.3032 32.9614 46.3028H32.9616H32.9618H32.9619H32.9621C32.9668 46.3028 32.9716 46.3028 32.9763 46.3028C35.6758 46.3227 38.6064 47.4864 41.7087 48.7183C47.7768 51.128 51.9625 52.4541 54.7452 49.0664C55.2671 48.4305 56.2075 48.3371 56.8453 48.8573C57.4833 49.3775 57.5771 50.3143 57.0552 50.9497C55.3425 53.0347 53.0676 54.0867 50.2802 54.0867ZM47.2392 46.6375C46.9304 46.6375 46.6215 46.5422 46.3596 46.3519L32.9998 36.6418L19.64 46.3517C19.1169 46.7319 18.4075 46.7329 17.8833 46.3533C17.3593 45.9742 17.1409 45.3015 17.3422 44.6884L22.4824 29.0284L9.08512 19.3697C8.56055 18.9914 8.34043 18.3192 8.54059 17.7056C8.74038 17.0928 9.31363 16.6782 9.95982 16.6782C9.96076 16.6782 9.96169 16.6782 9.96281 16.6782L26.4997 16.71L31.5795 1.03005C31.7783 0.416146 32.3521 0 32.9996 0C33.6471 0 34.2209 0.416146 34.4198 1.03005L39.4996 16.71L56.0363 16.6782C56.0372 16.6782 56.0383 16.6782 56.0392 16.6782C56.6856 16.6782 57.2587 17.0928 57.4585 17.7056C57.6586 18.3192 57.4387 18.9914 56.914 19.3697L43.5168 29.0284L48.6573 44.6886C48.8586 45.3017 48.6399 45.9744 48.1161 46.3535C47.855 46.5429 47.5472 46.6375 47.2392 46.6375ZM14.5804 19.6607L25.114 27.2549C25.6395 27.6338 25.8592 28.3074 25.6576 28.9217L21.6161 41.2347L32.1204 33.6002C32.6444 33.2194 33.3556 33.2194 33.8796 33.6002L44.3839 41.2347L40.3422 28.9217C40.1406 28.3074 40.3603 27.6338 40.8858 27.2549L51.4195 19.6607L38.4175 19.6856C38.4165 19.6856 38.4154 19.6856 38.4145 19.6856C37.767 19.6856 37.1932 19.2697 36.9943 18.6556L32.9998 6.32713L29.0057 18.6556C28.8068 19.2697 28.2328 19.6856 27.5855 19.6856C27.5846 19.6856 27.5837 19.6856 27.5825 19.6856L14.5804 19.6607ZM56.0961 41.4414H53.1213C52.2971 41.4414 51.6289 40.7756 51.6289 39.9545C51.6289 39.1333 52.2971 38.4676 53.1213 38.4676H56.0961C56.9203 38.4676 57.5885 39.1333 57.5885 39.9545C57.5885 40.7756 56.9203 41.4414 56.0961 41.4414ZM12.8787 41.4414H9.90368C9.07952 41.4414 8.41131 40.7756 8.41131 39.9545C8.41131 39.1333 9.07952 38.4676 9.90368 38.4676H12.8787C13.7029 38.4676 14.3711 39.1333 14.3711 39.9545C14.3711 40.7756 13.7029 41.4414 12.8787 41.4414ZM59.7 35.551H50.7516C49.9275 35.551 49.2593 34.8853 49.2593 34.0641C49.2593 33.243 49.9275 32.5772 50.7516 32.5772H59.7C60.5242 32.5772 61.1924 33.243 61.1924 34.0641C61.1924 34.8853 60.5242 35.551 59.7 35.551ZM15.2482 35.551H6.29963C5.47547 35.551 4.80727 34.8853 4.80727 34.0641C4.80727 33.243 5.47547 32.5772 6.29963 32.5772H15.2482C16.0723 32.5772 16.7405 33.243 16.7405 34.0641C16.7405 34.8853 16.0723 35.551 15.2482 35.551ZM64.5076 29.6607H53.1213C52.2971 29.6607 51.6289 28.9949 51.6289 28.1738C51.6289 27.3526 52.2971 26.6869 53.1213 26.6869H64.5076C65.3318 26.6869 66 27.3526 66 28.1738C66 28.9949 65.3318 29.6607 64.5076 29.6607ZM12.8787 29.6607H1.49236C0.668204 29.6607 0 28.9949 0 28.1738C0 27.3526 0.668204 26.6869 1.49236 26.6869H12.8787C13.7029 26.6869 14.3711 27.3526 14.3711 28.1738C14.3711 28.9949 13.7029 29.6607 12.8787 29.6607Z" fill="#E30909"/>
</svg>
