<svg width="59" height="64" viewBox="0 0 59 64" fill="none" xmlns="http://www.w3.org/2000/svg">
<path d="M57.3611 12.8C48.8061 15.04 38.7761 16 29.5 16C20.2239 16 10.1939 15.04 1.63889 12.8L0 19.2C6.09667 20.8 13.1111 21.856 19.6667 22.4V64H26.2222V44.8H32.7778V64H39.3333V22.4C45.8889 21.856 52.9033 20.8 59 19.2L57.3611 12.8ZM29.5 12.8C33.1056 12.8 36.0556 9.92 36.0556 6.4C36.0556 2.88 33.1056 0 29.5 0C25.8944 0 22.9444 2.88 22.9444 6.4C22.9444 9.92 25.8944 12.8 29.5 12.8Z" fill="#E30909"/>
</svg>
